<svg xmlns="http://www.w3.org/2000/svg" viewBox="0 0 94 24"><defs/><defs><filter id="a"><feColorMatrix in="SourceGraphic" values="0 0 0 0 1.000000 0 0 0 0 1.000000 0 0 0 0 1.000000 0 0 0 1.000000 0"/></filter></defs><g fill="none" filter="url(#a)" transform="translate(-594 -3877)"><path fill="#000" d="M594 3877v23.875h33.958V3877H594zm56.556 0c-1.718 0-2.964.243-3.921.872-1 .649-1.462 1.746-1.462 3.455v3.704c0 1.72.49 2.878 1.462 3.455.785.553 2.054.81 3.92.81 1.846 0 3.17-.247 3.925-.78.972-.61 1.462-1.823 1.462-3.485v-3.704c0-1.628-.483-2.786-1.462-3.455-.804-.564-2.163-.872-3.924-.872zm-17.554.218v11.797h6.258c3.077 0 4.233-1.276 4.233-4.7v-2.584c0-3.247-1.3-4.513-4.641-4.513h-5.85zm24.87 0v11.797h7.505v-1.96h-4.86v-9.837h-2.646zm8.966 0v11.797h5.508c1.699 0 2.41-.332 2.74-.56.564-.38 1.278-1.238 1.278-2.584-.003-1.586-.546-3.171-3.145-3.112 2.066-.19 2.521-1.206 2.521-2.677 0-1.304-.53-1.962-1.119-2.335-.502-.315-1.097-.529-2.337-.529h-5.446zm9.772 0c.49.902 3.955 7.47 3.955 7.47v4.327h2.83v-4.326s3.57-6.562 4.08-7.47h-2.49l-2.93 5.322-2.799-5.323h-2.646zm-26.768 1.65c.212-.016.461 0 .714 0 2.032 0 2.74.418 2.74 2.459v3.548c0 2.093-.708 2.584-2.74 2.584-2.026 0-2.737-.491-2.737-2.584v-3.548c0-1.786.527-2.347 2.023-2.46zm19.612.03h2.583c.88 0 1.428.718 1.428 1.682 0 1.48-.683 1.513-2.709 1.587v1.37c1.805-.007 3.242-.146 3.242 1.743 0 .95-.59 2.023-2.148 2.023h-2.396v-8.404zm-33.806.032h3.204c.913 0 2.026.537 2.026 2.46v3.205c0 2.068-1.113 2.584-2.026 2.584h-3.204v-8.249zm-37.633 1.183h3.86c4.018 0 7.377 4.011 7.377 8.778 0 4.904-3.36 8.871-7.378 8.871h-3.859v-17.65zm22.07 0h3.89v17.65h-3.89c-4.02 0-7.378-3.968-7.378-8.872 0-4.767 3.357-8.778 7.378-8.778zm66.3 6.661a1.11 1.11 0 00-1.12 1.121c0 .648.512 1.12 1.12 1.12a1.113 1.113 0 001.121-1.12c0-.643-.52-1.12-1.122-1.12zm0 .187c.507 0 .9.4.9.934 0 .546-.393.934-.9.934-.515 0-.901-.388-.901-.934 0-.535.386-.934.9-.934zm-.434.28v1.308h.215v-.561h.218l.343.56h.187l-.343-.56c.19-.024.309-.147.309-.374 0-.256-.125-.373-.433-.373h-.496zm.215.187h.246c.231 0 .281.065.281.186.006.145-.065.218-.309.218h-.218v-.404zm-23.47 4.233c-1.147 0-1.976.18-2.615.654-.667.488-.994 1.3-.994 2.583v2.802c0 1.292.346 2.15.994 2.583.527.416 1.371.623 2.615.623 1.231 0 2.113-.192 2.615-.592.652-.46.994-1.366.994-2.614v-2.802c0-1.223-.34-2.08-.994-2.583-.54-.424-1.44-.654-2.615-.654zm12.296.187v.436h.561v1.556h.433v-1.556h.562v-.436h-1.556zm1.777 0v1.992h.402v-1.307l.467.996h.187l.5-1.12.027 1.43h.374v-1.991h-.495l-.502 1.027-.465-1.027h-.495zm-28.018.031v8.965h1.836v-5.82l2.026 4.357h.9l2.273-4.95.062 6.413h1.746v-8.965h-2.276l-2.272 4.7-2.085-4.7h-2.21zm-8.029.031v1.962h2.522v7.003h1.991v-7.003h2.49v-1.962h-7.003zm-4.95.031l-3.207 8.903h1.836l.748-1.992h3.363l.748 1.992h1.805l-3.145-8.903h-2.148zm34.118.03c-1.596 0-2.21.713-2.21 1.932v1.306c0 1.206.502 1.608 1.833 1.806l1.898.28c.464.074.592.221.592.622v.841c0 .346-.15.53-.499.53h-3.796v.932c.334.389 1.054.5 1.587.499h2.337c1.5 0 2.02-.63 2.02-1.899v-1.339c0-1.264-.383-1.646-1.555-1.805l-2.207-.31c-.368-.049-.595-.179-.595-.592v-.779c0-.43.096-.56.467-.56h3.581v-.965c-.29-.367-1.056-.498-1.586-.498h-1.867zm-7.661 1.09c.143-.011.299 0 .467 0 1.356 0 1.84.335 1.84 1.869v2.645c0 1.572-.484 1.93-1.84 1.93-1.353 0-1.836-.358-1.836-1.93v-2.645c0-1.342.371-1.784 1.369-1.868zm-25.4 1.34l.935 2.49-1.93.03.995-2.52z"/></g></svg>